<?xml version="1.0" standalone="no"?>
<!DOCTYPE svg PUBLIC "-//W3C//DTD SVG 20010904//EN"
 "http://www.w3.org/TR/2001/REC-SVG-20010904/DTD/svg10.dtd">
<svg version="1.0" xmlns="http://www.w3.org/2000/svg"
 width="500.000000pt" height="500.000000pt" viewBox="0 0 500.000000 500.000000"
 preserveAspectRatio="xMidYMid meet">
<metadata>
Created by potrace 1.14, written by Peter Selinger 2001-2017
</metadata>
<g transform="translate(0.000000,500.000000) scale(0.100000,-0.100000)"
fill="#000000" stroke="none">
<path d="M0 2500 l0 -2500 2500 0 2500 0 0 2500 0 2500 -2500 0 -2500 0 0
-2500z m3006 855 c105 -51 124 -111 95 -302 l-14 -93 -118 0 c-86 0 -119 3
-119 12 0 7 5 49 12 94 13 92 6 114 -38 114 -52 0 -56 -14 -108 -377 -26 -188
-46 -349 -42 -358 7 -19 69 -20 89 -1 8 8 20 56 27 110 l13 96 118 0 c70 0
119 -4 119 -10 0 -49 -36 -234 -51 -267 -75 -158 -384 -208 -510 -82 -68 68
-68 66 -5 501 30 213 62 404 71 425 18 43 65 95 111 123 90 56 252 63 350 15z
m-614 10 c2 -3 -32 -257 -76 -565 l-79 -560 -119 0 c-85 0 -118 3 -118 12 0
16 149 1067 155 1096 5 21 9 22 119 22 62 0 115 -2 118 -5z m-89 -1208 c51
-33 61 -59 53 -149 -7 -85 -22 -126 -63 -170 l-26 -27 31 -31 c17 -16 32 -43
34 -58 5 -43 -17 -174 -35 -208 -23 -44 -80 -91 -124 -103 -43 -12 -290 -15
-296 -3 -4 7 99 745 107 767 2 6 56 8 148 5 115 -4 149 -9 171 -23z m336 -14
c5 -21 22 -85 36 -143 45 -183 46 -185 55 -170 4 8 10 51 14 95 3 44 11 119
17 167 l12 88 77 0 c42 0 79 -2 82 -5 5 -5 -98 -739 -107 -762 -3 -9 -27 -13
-69 -13 l-65 0 -10 38 c-6 20 -27 105 -48 187 -43 173 -43 174 -67 -58 -9 -82
-18 -152 -21 -158 -7 -11 -152 -12 -158 -1 -3 4 19 174 49 377 29 204 53 376
54 383 0 8 21 12 70 12 l69 0 10 -37z"/>
<path d="M2126 2028 c-3 -7 -9 -44 -14 -81 -10 -76 -4 -85 43 -73 28 7 37 31
39 109 1 52 1 52 -32 55 -20 2 -34 -2 -36 -10z"/>
<path d="M2086 1732 c-4 -8 -26 -153 -26 -178 0 -18 50 -19 74 -1 23 17 44
150 26 172 -13 16 -65 21 -74 7z"/>
</g>
</svg>
